<mxfile host="Electron" agent="Mozilla/5.0 (Windows NT 10.0; Win64; x64) AppleWebKit/537.36 (KHTML, like Gecko) draw.io/26.0.9 Chrome/128.0.6613.186 Electron/32.2.5 Safari/537.36" version="26.0.9">
  <diagram name="Page-1" id="b520641d-4fe3-3701-9064-5fc419738815">
    <mxGraphModel dx="1434" dy="836" grid="1" gridSize="10" guides="1" tooltips="1" connect="1" arrows="1" fold="1" page="1" pageScale="1" pageWidth="1100" pageHeight="850" background="none" math="0" shadow="0">
      <root>
        <mxCell id="0" />
        <mxCell id="1" parent="0" />
        <mxCell id="PgRCjoFBR8ErY0SR_Cou-39" value="" style="rounded=1;whiteSpace=wrap;html=1;fillColor=none;strokeColor=#d6b656;dashed=1;" parent="1" vertex="1">
          <mxGeometry x="572.5" y="137.5" width="500" height="455" as="geometry" />
        </mxCell>
        <mxCell id="PgRCjoFBR8ErY0SR_Cou-29" value="" style="rounded=1;whiteSpace=wrap;html=1;fillColor=none;strokeColor=#6c8ebf;dashed=1;" parent="1" vertex="1">
          <mxGeometry x="40" y="137.5" width="500" height="455" as="geometry" />
        </mxCell>
        <mxCell id="21ea969265ad0168-6" value="&lt;font style=&quot;font-size: 18px;&quot;&gt;crm_cust_info&lt;/font&gt;" style="swimlane;html=1;fontStyle=0;childLayout=stackLayout;horizontal=1;startSize=26;fillColor=#dae8fc;horizontalStack=0;resizeParent=1;resizeLast=0;collapsible=1;marginBottom=0;swimlaneFillColor=#ffffff;align=center;rounded=1;shadow=0;comic=0;labelBackgroundColor=none;strokeWidth=1;fontFamily=Verdana;fontSize=12;strokeColor=#6c8ebf;" parent="1" vertex="1">
          <mxGeometry x="340" y="250" width="170" height="90" as="geometry">
            <mxRectangle x="160" y="250" width="90" height="30" as="alternateBounds" />
          </mxGeometry>
        </mxCell>
        <mxCell id="PgRCjoFBR8ErY0SR_Cou-2" value="&lt;font style=&quot;font-size: 15px;&quot;&gt;cst_id&lt;/font&gt;" style="text;html=1;strokeColor=none;fillColor=none;spacingLeft=4;spacingRight=4;whiteSpace=wrap;overflow=hidden;rotatable=0;points=[[0,0.5],[1,0.5]];portConstraint=eastwest;" parent="21ea969265ad0168-6" vertex="1">
          <mxGeometry y="26" width="170" height="26" as="geometry" />
        </mxCell>
        <mxCell id="21ea969265ad0168-7" value="&lt;font style=&quot;font-size: 15px;&quot;&gt;cst_key&lt;/font&gt;" style="text;html=1;strokeColor=none;fillColor=none;spacingLeft=4;spacingRight=4;whiteSpace=wrap;overflow=hidden;rotatable=0;points=[[0,0.5],[1,0.5]];portConstraint=eastwest;" parent="21ea969265ad0168-6" vertex="1">
          <mxGeometry y="52" width="170" height="30" as="geometry" />
        </mxCell>
        <mxCell id="PgRCjoFBR8ErY0SR_Cou-3" value="&lt;font style=&quot;font-size: 15px;&quot;&gt;Customer information&lt;/font&gt;" style="text;html=1;align=center;verticalAlign=middle;whiteSpace=wrap;rounded=0;" parent="1" vertex="1">
          <mxGeometry x="337.5" y="220" width="175" height="30" as="geometry" />
        </mxCell>
        <mxCell id="PgRCjoFBR8ErY0SR_Cou-4" value="&lt;span style=&quot;font-size: 18px;&quot;&gt;crm_prd_info&lt;/span&gt;" style="swimlane;html=1;fontStyle=0;childLayout=stackLayout;horizontal=1;startSize=26;fillColor=#dae8fc;horizontalStack=0;resizeParent=1;resizeLast=0;collapsible=1;marginBottom=0;swimlaneFillColor=#ffffff;align=center;rounded=1;shadow=0;comic=0;labelBackgroundColor=none;strokeWidth=1;fontFamily=Verdana;fontSize=12;strokeColor=#6c8ebf;" parent="1" vertex="1">
          <mxGeometry x="340" y="410" width="170" height="90" as="geometry">
            <mxRectangle x="160" y="250" width="90" height="30" as="alternateBounds" />
          </mxGeometry>
        </mxCell>
        <mxCell id="PgRCjoFBR8ErY0SR_Cou-5" value="&lt;font style=&quot;font-size: 15px;&quot;&gt;prd_id&lt;/font&gt;" style="text;html=1;strokeColor=none;fillColor=none;spacingLeft=4;spacingRight=4;whiteSpace=wrap;overflow=hidden;rotatable=0;points=[[0,0.5],[1,0.5]];portConstraint=eastwest;" parent="PgRCjoFBR8ErY0SR_Cou-4" vertex="1">
          <mxGeometry y="26" width="170" height="26" as="geometry" />
        </mxCell>
        <mxCell id="PgRCjoFBR8ErY0SR_Cou-6" value="&lt;font style=&quot;font-size: 15px;&quot;&gt;prd_key&lt;/font&gt;" style="text;html=1;strokeColor=none;fillColor=none;spacingLeft=4;spacingRight=4;whiteSpace=wrap;overflow=hidden;rotatable=0;points=[[0,0.5],[1,0.5]];portConstraint=eastwest;" parent="PgRCjoFBR8ErY0SR_Cou-4" vertex="1">
          <mxGeometry y="52" width="170" height="30" as="geometry" />
        </mxCell>
        <mxCell id="PgRCjoFBR8ErY0SR_Cou-7" value="&lt;span style=&quot;font-size: 15px;&quot;&gt;Current &amp;amp; Historical product information&lt;/span&gt;" style="text;html=1;align=center;verticalAlign=middle;whiteSpace=wrap;rounded=0;" parent="1" vertex="1">
          <mxGeometry x="340" y="370" width="175" height="30" as="geometry" />
        </mxCell>
        <mxCell id="PgRCjoFBR8ErY0SR_Cou-8" value="&lt;span style=&quot;font-size: 18px;&quot;&gt;crm_sales_details&lt;/span&gt;" style="swimlane;html=1;fontStyle=0;childLayout=stackLayout;horizontal=1;startSize=26;fillColor=#dae8fc;horizontalStack=0;resizeParent=1;resizeLast=0;collapsible=1;marginBottom=0;swimlaneFillColor=#ffffff;align=center;rounded=1;shadow=0;comic=0;labelBackgroundColor=none;strokeWidth=1;fontFamily=Verdana;fontSize=12;strokeColor=#6c8ebf;" parent="1" vertex="1">
          <mxGeometry x="60" y="320" width="190" height="90" as="geometry">
            <mxRectangle x="160" y="250" width="90" height="30" as="alternateBounds" />
          </mxGeometry>
        </mxCell>
        <mxCell id="PgRCjoFBR8ErY0SR_Cou-9" value="&lt;span style=&quot;font-size: 15px;&quot;&gt;sls_cust_id&lt;/span&gt;" style="text;html=1;strokeColor=none;fillColor=none;spacingLeft=4;spacingRight=4;whiteSpace=wrap;overflow=hidden;rotatable=0;points=[[0,0.5],[1,0.5]];portConstraint=eastwest;" parent="PgRCjoFBR8ErY0SR_Cou-8" vertex="1">
          <mxGeometry y="26" width="190" height="26" as="geometry" />
        </mxCell>
        <mxCell id="PgRCjoFBR8ErY0SR_Cou-10" value="&lt;font style=&quot;font-size: 15px;&quot;&gt;sls_prd_key&lt;/font&gt;" style="text;html=1;strokeColor=none;fillColor=none;spacingLeft=4;spacingRight=4;whiteSpace=wrap;overflow=hidden;rotatable=0;points=[[0,0.5],[1,0.5]];portConstraint=eastwest;" parent="PgRCjoFBR8ErY0SR_Cou-8" vertex="1">
          <mxGeometry y="52" width="190" height="30" as="geometry" />
        </mxCell>
        <mxCell id="PgRCjoFBR8ErY0SR_Cou-11" value="&lt;font style=&quot;font-size: 15px;&quot;&gt;Transactional data for sales and orders&lt;/font&gt;" style="text;html=1;align=center;verticalAlign=middle;whiteSpace=wrap;rounded=0;" parent="1" vertex="1">
          <mxGeometry x="71.25" y="280" width="175" height="30" as="geometry" />
        </mxCell>
        <mxCell id="PgRCjoFBR8ErY0SR_Cou-12" style="edgeStyle=orthogonalEdgeStyle;rounded=0;orthogonalLoop=1;jettySize=auto;html=1;entryX=0;entryY=0.5;entryDx=0;entryDy=0;" parent="1" source="PgRCjoFBR8ErY0SR_Cou-9" target="PgRCjoFBR8ErY0SR_Cou-2" edge="1">
          <mxGeometry relative="1" as="geometry" />
        </mxCell>
        <mxCell id="PgRCjoFBR8ErY0SR_Cou-13" style="edgeStyle=orthogonalEdgeStyle;rounded=0;orthogonalLoop=1;jettySize=auto;html=1;" parent="1" source="PgRCjoFBR8ErY0SR_Cou-10" target="PgRCjoFBR8ErY0SR_Cou-6" edge="1">
          <mxGeometry relative="1" as="geometry" />
        </mxCell>
        <mxCell id="PgRCjoFBR8ErY0SR_Cou-14" value="&lt;font style=&quot;font-size: 18px;&quot;&gt;erp_cust_az12&lt;/font&gt;" style="swimlane;html=1;fontStyle=0;childLayout=stackLayout;horizontal=1;startSize=26;fillColor=#fff2cc;horizontalStack=0;resizeParent=1;resizeLast=0;collapsible=1;marginBottom=0;swimlaneFillColor=#ffffff;align=center;rounded=1;shadow=0;comic=0;labelBackgroundColor=none;strokeWidth=1;fontFamily=Verdana;fontSize=12;strokeColor=#d6b656;" parent="1" vertex="1">
          <mxGeometry x="715" y="205" width="170" height="60" as="geometry">
            <mxRectangle x="160" y="250" width="90" height="30" as="alternateBounds" />
          </mxGeometry>
        </mxCell>
        <mxCell id="PgRCjoFBR8ErY0SR_Cou-15" value="&lt;span style=&quot;font-size: 15px;&quot;&gt;cid&lt;/span&gt;" style="text;html=1;strokeColor=none;fillColor=none;spacingLeft=4;spacingRight=4;whiteSpace=wrap;overflow=hidden;rotatable=0;points=[[0,0.5],[1,0.5]];portConstraint=eastwest;" parent="PgRCjoFBR8ErY0SR_Cou-14" vertex="1">
          <mxGeometry y="26" width="170" height="22" as="geometry" />
        </mxCell>
        <mxCell id="PgRCjoFBR8ErY0SR_Cou-17" value="&lt;font style=&quot;font-size: 15px;&quot;&gt;Extra customer information(Birthdate)&lt;/font&gt;" style="text;html=1;align=center;verticalAlign=middle;whiteSpace=wrap;rounded=0;" parent="1" vertex="1">
          <mxGeometry x="700" y="165" width="190" height="30" as="geometry" />
        </mxCell>
        <mxCell id="PgRCjoFBR8ErY0SR_Cou-18" value="&lt;span style=&quot;font-size: 18px;&quot;&gt;erp_loc_a101&lt;/span&gt;" style="swimlane;html=1;fontStyle=0;childLayout=stackLayout;horizontal=1;startSize=26;fillColor=#fff2cc;horizontalStack=0;resizeParent=1;resizeLast=0;collapsible=1;marginBottom=0;swimlaneFillColor=#ffffff;align=center;rounded=1;shadow=0;comic=0;labelBackgroundColor=none;strokeWidth=1;fontFamily=Verdana;fontSize=12;strokeColor=#d6b656;" parent="1" vertex="1">
          <mxGeometry x="712.5" y="335" width="170" height="60" as="geometry">
            <mxRectangle x="160" y="250" width="90" height="30" as="alternateBounds" />
          </mxGeometry>
        </mxCell>
        <mxCell id="PgRCjoFBR8ErY0SR_Cou-19" value="&lt;span style=&quot;font-size: 15px;&quot;&gt;cid&lt;/span&gt;" style="text;html=1;strokeColor=none;fillColor=none;spacingLeft=4;spacingRight=4;whiteSpace=wrap;overflow=hidden;rotatable=0;points=[[0,0.5],[1,0.5]];portConstraint=eastwest;" parent="PgRCjoFBR8ErY0SR_Cou-18" vertex="1">
          <mxGeometry y="26" width="170" height="26" as="geometry" />
        </mxCell>
        <mxCell id="PgRCjoFBR8ErY0SR_Cou-20" value="&lt;span style=&quot;font-size: 15px;&quot;&gt;Extra customer information(location)&lt;/span&gt;" style="text;html=1;align=center;verticalAlign=middle;whiteSpace=wrap;rounded=0;" parent="1" vertex="1">
          <mxGeometry x="707.5" y="295" width="175" height="30" as="geometry" />
        </mxCell>
        <mxCell id="PgRCjoFBR8ErY0SR_Cou-23" value="&lt;span style=&quot;font-size: 18px;&quot;&gt;erp_px_cat_g1v2&lt;/span&gt;" style="swimlane;html=1;fontStyle=0;childLayout=stackLayout;horizontal=1;startSize=26;fillColor=#fff2cc;horizontalStack=0;resizeParent=1;resizeLast=0;collapsible=1;marginBottom=0;swimlaneFillColor=#ffffff;align=center;rounded=1;shadow=0;comic=0;labelBackgroundColor=none;strokeWidth=1;fontFamily=Verdana;fontSize=12;strokeColor=#d6b656;" parent="1" vertex="1">
          <mxGeometry x="712.5" y="505" width="197.5" height="60" as="geometry">
            <mxRectangle x="160" y="250" width="90" height="30" as="alternateBounds" />
          </mxGeometry>
        </mxCell>
        <mxCell id="PgRCjoFBR8ErY0SR_Cou-24" value="&lt;span style=&quot;font-size: 15px;&quot;&gt;id&lt;/span&gt;" style="text;html=1;strokeColor=none;fillColor=none;spacingLeft=4;spacingRight=4;whiteSpace=wrap;overflow=hidden;rotatable=0;points=[[0,0.5],[1,0.5]];portConstraint=eastwest;" parent="PgRCjoFBR8ErY0SR_Cou-23" vertex="1">
          <mxGeometry y="26" width="197.5" height="26" as="geometry" />
        </mxCell>
        <mxCell id="PgRCjoFBR8ErY0SR_Cou-25" value="&lt;span style=&quot;font-size: 15px;&quot;&gt;Product categories&lt;/span&gt;" style="text;html=1;align=center;verticalAlign=middle;whiteSpace=wrap;rounded=0;" parent="1" vertex="1">
          <mxGeometry x="707.5" y="465" width="175" height="30" as="geometry" />
        </mxCell>
        <mxCell id="PgRCjoFBR8ErY0SR_Cou-30" value="&lt;font style=&quot;font-size: 24px;&quot;&gt;&lt;b&gt;CRM&lt;/b&gt;&lt;/font&gt;" style="rounded=1;whiteSpace=wrap;html=1;fillColor=#dae8fc;strokeColor=#6c8ebf;" parent="1" vertex="1">
          <mxGeometry x="230" y="105" width="120" height="60" as="geometry" />
        </mxCell>
        <mxCell id="PgRCjoFBR8ErY0SR_Cou-31" value="&lt;span style=&quot;font-size: 24px;&quot;&gt;&lt;b&gt;ERP&lt;/b&gt;&lt;/span&gt;" style="rounded=1;whiteSpace=wrap;html=1;fillColor=#fff2cc;strokeColor=#d6b656;" parent="1" vertex="1">
          <mxGeometry x="762.5" y="100" width="120" height="60" as="geometry" />
        </mxCell>
        <mxCell id="PgRCjoFBR8ErY0SR_Cou-35" style="edgeStyle=orthogonalEdgeStyle;rounded=0;orthogonalLoop=1;jettySize=auto;html=1;" parent="1" source="PgRCjoFBR8ErY0SR_Cou-15" target="21ea969265ad0168-7" edge="1">
          <mxGeometry relative="1" as="geometry" />
        </mxCell>
        <mxCell id="PgRCjoFBR8ErY0SR_Cou-36" style="edgeStyle=orthogonalEdgeStyle;rounded=0;orthogonalLoop=1;jettySize=auto;html=1;entryX=1;entryY=0.5;entryDx=0;entryDy=0;" parent="1" source="PgRCjoFBR8ErY0SR_Cou-19" target="21ea969265ad0168-7" edge="1">
          <mxGeometry relative="1" as="geometry" />
        </mxCell>
        <mxCell id="PgRCjoFBR8ErY0SR_Cou-37" style="edgeStyle=orthogonalEdgeStyle;rounded=0;orthogonalLoop=1;jettySize=auto;html=1;" parent="1" source="PgRCjoFBR8ErY0SR_Cou-24" target="PgRCjoFBR8ErY0SR_Cou-6" edge="1">
          <mxGeometry relative="1" as="geometry" />
        </mxCell>
        <mxCell id="Ropug-XgnjFAu6R9A1aS-1" value="&lt;font style=&quot;font-size: 17px;&quot;&gt;Customer&lt;/font&gt;" style="text;html=1;strokeColor=#82b366;fillColor=#d5e8d4;align=center;verticalAlign=middle;whiteSpace=wrap;overflow=hidden;" vertex="1" parent="1">
          <mxGeometry x="386.25" y="340" width="77.5" height="30" as="geometry" />
        </mxCell>
        <mxCell id="Ropug-XgnjFAu6R9A1aS-2" value="&lt;font style=&quot;font-size: 17px;&quot;&gt;Product&lt;/font&gt;" style="text;html=1;strokeColor=#b85450;fillColor=#f8cecc;align=center;verticalAlign=middle;whiteSpace=wrap;overflow=hidden;" vertex="1" parent="1">
          <mxGeometry x="772.5" y="562.5" width="77.5" height="30" as="geometry" />
        </mxCell>
        <mxCell id="Ropug-XgnjFAu6R9A1aS-3" value="&lt;font style=&quot;font-size: 17px;&quot;&gt;Product&lt;/font&gt;" style="text;html=1;strokeColor=#b85450;fillColor=#f8cecc;align=center;verticalAlign=middle;whiteSpace=wrap;overflow=hidden;" vertex="1" parent="1">
          <mxGeometry x="386.25" y="500" width="77.5" height="30" as="geometry" />
        </mxCell>
        <mxCell id="Ropug-XgnjFAu6R9A1aS-4" value="&lt;font style=&quot;font-size: 17px;&quot;&gt;Customer&lt;/font&gt;" style="text;html=1;strokeColor=#82b366;fillColor=#d5e8d4;align=center;verticalAlign=middle;whiteSpace=wrap;overflow=hidden;" vertex="1" parent="1">
          <mxGeometry x="756.25" y="265" width="77.5" height="30" as="geometry" />
        </mxCell>
        <mxCell id="Ropug-XgnjFAu6R9A1aS-5" value="&lt;font style=&quot;font-size: 17px;&quot;&gt;Customer&lt;/font&gt;" style="text;html=1;strokeColor=#82b366;fillColor=#d5e8d4;align=center;verticalAlign=middle;whiteSpace=wrap;overflow=hidden;" vertex="1" parent="1">
          <mxGeometry x="756.25" y="395" width="77.5" height="30" as="geometry" />
        </mxCell>
        <mxCell id="Ropug-XgnjFAu6R9A1aS-6" value="&lt;font style=&quot;font-size: 17px;&quot;&gt;Sales&lt;/font&gt;" style="text;html=1;strokeColor=#9673a6;fillColor=#e1d5e7;align=center;verticalAlign=middle;whiteSpace=wrap;overflow=hidden;" vertex="1" parent="1">
          <mxGeometry x="116.25" y="410" width="77.5" height="30" as="geometry" />
        </mxCell>
      </root>
    </mxGraphModel>
  </diagram>
</mxfile>
